<svg xmlns="http://www.w3.org/2000/svg" xmlns:xlink="http://www.w3.org/1999/xlink" width="323" zoomAndPan="magnify" viewBox="0 0 242.25 119.999999" height="160" preserveAspectRatio="xMidYMid meet" version="1.0"><defs><g/><clipPath id="f2d6c90e82"><path d="M 0.304688 20.757812 L 81.496094 20.757812 L 81.496094 102.253906 L 0.304688 102.253906 Z M 0.304688 20.757812 " clip-rule="nonzero"/></clipPath></defs><g clip-path="url(#f2d6c90e82)"><path fill="#fff" d="M 40.90625 20.757812 L 81.800781 61.65625 L 81.800781 20.757812 Z M 40.90625 20.757812 L 40.90625 61.65625 L 0.00390625 20.757812 Z M 40.90625 102.554688 L 0.0078125 61.660156 L 40.90625 61.660156 Z M 81.800781 102.554688 L 40.90625 61.660156 L 81.800781 61.660156 Z M 81.800781 102.554688 " fill-opacity="1" fill-rule="nonzero"/></g><g fill="#fff" fill-opacity="1"><g transform="translate(98.839173, 50.027073)"><g><path d="M 34.453125 0 L 28.796875 0 L 26.265625 -16.78125 L 18.59375 -0.03125 L 17.234375 -0.03125 L 9.546875 -16.78125 L 7.015625 0 L 1.328125 0 L 5.359375 -25.71875 L 10.953125 -25.71875 L 17.890625 -9.953125 L 24.875 -25.71875 L 30.453125 -25.71875 Z M 34.453125 0 "/></g></g></g><g fill="#fff" fill-opacity="1"><g transform="translate(134.650925, 50.027073)"><g><path d="M 2.9375 0 L 2.9375 -25.71875 L 8.515625 -25.71875 L 8.515625 0 Z M 2.9375 0 "/></g></g></g><g fill="#fff" fill-opacity="1"><g transform="translate(146.110681, 50.027073)"><g><path d="M 17.078125 0 L 12.078125 -8.78125 L 8.515625 -8.78125 L 8.515625 0 L 2.9375 0 L 2.9375 -25.71875 L 13.328125 -25.71875 C 15.046875 -25.71875 16.578125 -25.347656 17.921875 -24.609375 C 19.273438 -23.878906 20.34375 -22.875 21.125 -21.59375 C 21.90625 -20.320312 22.296875 -18.851562 22.296875 -17.1875 C 22.296875 -15.519531 21.875 -14.03125 21.03125 -12.71875 C 20.1875 -11.414062 19.050781 -10.421875 17.625 -9.734375 L 23.328125 0 Z M 8.515625 -20.578125 L 8.515625 -13.921875 L 12.96875 -13.921875 C 14.113281 -13.921875 15.015625 -14.234375 15.671875 -14.859375 C 16.335938 -15.484375 16.671875 -16.273438 16.671875 -17.234375 C 16.671875 -18.210938 16.335938 -19.015625 15.671875 -19.640625 C 15.015625 -20.265625 14.113281 -20.578125 12.96875 -20.578125 Z M 8.515625 -20.578125 "/></g></g></g><g fill="#fff" fill-opacity="1"><g transform="translate(170.389217, 50.027073)"><g><path d="M 15.140625 0.546875 C 13.179688 0.546875 11.367188 0.210938 9.703125 -0.453125 C 8.035156 -1.128906 6.582031 -2.070312 5.34375 -3.28125 C 4.101562 -4.5 3.140625 -5.921875 2.453125 -7.546875 C 1.773438 -9.171875 1.4375 -10.941406 1.4375 -12.859375 C 1.4375 -14.765625 1.773438 -16.53125 2.453125 -18.15625 C 3.140625 -19.789062 4.101562 -21.210938 5.34375 -22.421875 C 6.582031 -23.640625 8.035156 -24.582031 9.703125 -25.25 C 11.367188 -25.925781 13.179688 -26.265625 15.140625 -26.265625 C 17.097656 -26.265625 18.90625 -25.925781 20.5625 -25.25 C 22.226562 -24.582031 23.675781 -23.640625 24.90625 -22.421875 C 26.132812 -21.210938 27.085938 -19.789062 27.765625 -18.15625 C 28.453125 -16.53125 28.796875 -14.765625 28.796875 -12.859375 C 28.796875 -10.941406 28.453125 -9.171875 27.765625 -7.546875 C 27.085938 -5.921875 26.132812 -4.5 24.90625 -3.28125 C 23.675781 -2.070312 22.226562 -1.128906 20.5625 -0.453125 C 18.90625 0.210938 17.097656 0.546875 15.140625 0.546875 Z M 15.140625 -4.703125 C 16.679688 -4.703125 18.054688 -5.054688 19.265625 -5.765625 C 20.472656 -6.472656 21.425781 -7.4375 22.125 -8.65625 C 22.820312 -9.882812 23.171875 -11.285156 23.171875 -12.859375 C 23.171875 -14.398438 22.820312 -15.785156 22.125 -17.015625 C 21.425781 -18.253906 20.472656 -19.226562 19.265625 -19.9375 C 18.054688 -20.65625 16.679688 -21.015625 15.140625 -21.015625 C 13.617188 -21.015625 12.242188 -20.65625 11.015625 -19.9375 C 9.796875 -19.226562 8.828125 -18.253906 8.109375 -17.015625 C 7.398438 -15.785156 7.046875 -14.398438 7.046875 -12.859375 C 7.046875 -11.316406 7.398438 -9.925781 8.109375 -8.6875 C 8.828125 -7.445312 9.796875 -6.472656 11.015625 -5.765625 C 12.242188 -5.054688 13.617188 -4.703125 15.140625 -4.703125 Z M 15.140625 -4.703125 "/></g></g></g><g fill="#fff" fill-opacity="1"><g transform="translate(98.839173, 89.654386)"><g><path d="M 34.453125 0 L 28.796875 0 L 26.265625 -16.78125 L 18.59375 -0.03125 L 17.234375 -0.03125 L 9.546875 -16.78125 L 7.015625 0 L 1.328125 0 L 5.359375 -25.71875 L 10.953125 -25.71875 L 17.890625 -9.953125 L 24.875 -25.71875 L 30.453125 -25.71875 Z M 34.453125 0 "/></g></g></g><g fill="#fff" fill-opacity="1"><g transform="translate(134.650925, 89.654386)"><g><path d="M 8.515625 -5.171875 L 18.765625 -5.171875 L 18.765625 0 L 2.9375 0 L 2.9375 -25.71875 L 18.359375 -25.71875 L 18.359375 -20.578125 L 8.515625 -20.578125 L 8.515625 -15.5 L 17.40625 -15.5 L 17.40625 -10.46875 L 8.515625 -10.46875 Z M 8.515625 -5.171875 "/></g></g></g><g fill="#fff" fill-opacity="1"><g transform="translate(155.182992, 89.654386)"><g><path d="M 12.671875 -25.71875 C 14.554688 -25.71875 16.296875 -25.394531 17.890625 -24.75 C 19.484375 -24.113281 20.859375 -23.21875 22.015625 -22.0625 C 23.179688 -20.914062 24.085938 -19.566406 24.734375 -18.015625 C 25.390625 -16.460938 25.71875 -14.753906 25.71875 -12.890625 C 25.71875 -11.035156 25.390625 -9.320312 24.734375 -7.75 C 24.085938 -6.1875 23.179688 -4.820312 22.015625 -3.65625 C 20.859375 -2.488281 19.484375 -1.585938 17.890625 -0.953125 C 16.296875 -0.316406 14.554688 0 12.671875 0 L 2.9375 0 L 2.9375 -25.71875 Z M 12.53125 -5.171875 C 14 -5.171875 15.296875 -5.5 16.421875 -6.15625 C 17.546875 -6.820312 18.425781 -7.738281 19.0625 -8.90625 C 19.695312 -10.070312 20.015625 -11.398438 20.015625 -12.890625 C 20.015625 -14.390625 19.695312 -15.710938 19.0625 -16.859375 C 18.425781 -18.015625 17.546875 -18.914062 16.421875 -19.5625 C 15.296875 -20.207031 14 -20.53125 12.53125 -20.53125 L 8.515625 -20.53125 L 8.515625 -5.171875 Z M 12.53125 -5.171875 "/></g></g></g><g fill="#fff" fill-opacity="1"><g transform="translate(182.399925, 89.654386)"><g><path d="M 2.9375 0 L 2.9375 -25.71875 L 8.515625 -25.71875 L 8.515625 0 Z M 2.9375 0 "/></g></g></g><g fill="#fff" fill-opacity="1"><g transform="translate(193.859681, 89.654386)"><g><path d="M 20.015625 0 L 18.21875 -4.890625 L 7.96875 -4.890625 L 6.203125 0 L 0.328125 0 L 10.390625 -25.71875 L 15.65625 -25.71875 L 26.046875 0 Z M 13.078125 -18.921875 L 9.734375 -9.734375 L 16.453125 -9.734375 Z M 13.078125 -18.921875 "/></g></g></g></svg>